<svg height="512pt" viewBox="-18 0 512 512.00071" width="512pt" xmlns="http://www.w3.org/2000/svg"><path d="m313.578125 445.585938c-19.570313 5.671874-61.039063 6.621093-82.4375 6.621093-122.09375 0-221.066406-98.976562-221.066406-221.066406 0-122.09375 98.972656-221.066406 221.066406-221.066406 111.464844 0 203.664063 82.496093 218.867187 189.765625l-137.859374 56.878906" fill="#8690a6"/><path d="m360.472656 231.140625c0-72.035156-58.398437-130.433594-130.433594-130.433594-72.035156 0-130.429687 58.398438-130.429687 130.433594s58.394531 130.429687 130.429687 130.429687c21.320313 0 41.445313-5.113281 59.214844-14.183593 0 0 22.214844-11.050781 23.765625-14.980469" fill="#b5bcc9"/><path d="m296.890625 231.140625c0 37.582031-30.464844 68.046875-68.046875 68.046875s-68.046875-30.464844-68.046875-68.046875 30.464844-68.046875 68.046875-68.046875 68.046875 30.464844 68.046875 68.046875zm0 0" fill="#f6f6f6"/><path d="m312.148438 256.71875.660156 57.542969 151.738281-59.882813-.691406-60.210937zm0 0" fill="#bdd9ff"/><path d="m314.550781 465.804688c-.226562-19.707032-16.386719-35.5-36.09375-35.273438-19.707031.230469-35.5 16.386719-35.273437 36.097656.226562 19.707032 16.386718 35.5 36.09375 35.273438 19.707031-.226563 35.5-16.386719 35.273437-36.097656zm0 0" fill="#8690a6"/><path d="m466.269531 405.117188c-.226562-19.707032-16.386719-35.5-36.09375-35.273438s-35.5 16.386719-35.273437 36.09375c.226562 19.707031 16.386718 35.5 36.09375 35.273438 19.707031-.226563 35.5-16.386719 35.273437-36.09375zm0 0" fill="#8690a6"/><path d="m92.441406 138.832031c14.652344-21.691406 34.53125-39.746093 57.492188-52.21875 11.363281-6.175781 1.761718-23.886719-9.617188-17.699219-25.789062 14.003907-48.117187 34.285157-64.570312 58.636719-7.230469 10.707031 9.417968 22.046875 16.695312 11.28125zm0 0"/><path d="m183.210938 71.625c5.476562 0 10.074218-4.59375 10.070312-10.070312 0-5.476563-4.597656-10.074219-10.070312-10.074219-5.316407 0-9.816407 4.332031-10.050782 9.632812-.253906 5.636719 4.398438 10.511719 10.050782 10.511719zm0 0"/><path d="m231.050781 442.132812c-.023437 0-.039062.003907-.039062.003907.015625 0 .027343-.003907.039062-.003907zm0 0"/><path d="m473.929688 194.050781c-.097657-8.410156-9.445313-11.917969-16.121094-8.285156-9.90625-49.664063-36.042969-94.953125-74.503906-128.613281-42.105469-36.855469-96.144532-57.152344-152.164063-57.152344-61.738281 0-119.785156 24.042969-163.441406 67.699219s-67.699219 101.703125-67.699219 163.441406 24.042969 119.785156 67.699219 163.441406 101.703125 67.699219 163.441406 67.699219c.085937 0 .167969 0 .253906-.003906.378907-.007813 1.046875-.027344 1.886719-.050782-.128906 1.496094-.191406 3.007813-.175781 4.539063.285156 24.894531 21.402343 45.507813 46.285156 45.230469 25.09375-.285156 45.230469-21.398438 45.230469-46.277344l-1.53125-133.488281c0-.03125 0-.066407-.003906-.101563l-.125-11.042968 132.476562-52.996094.140625 99.113281c-7.375-4.824219-15.980469-7.40625-24.976563-7.40625-.175781 0-.359374 0-.539062 0-25.230469.289063-45.519531 21.050781-45.230469 46.28125.140625 12.222656 5.03125 23.660156 13.773438 32.203125 8.613281 8.417969 19.949219 13.035156 31.96875 13.03125h.539062c12.222657-.140625 23.660157-5.03125 32.203125-13.773438 8.542969-8.742187 13.167969-20.289062 13.03125-32.507812 0-.011719-.003906-.019531-.003906-.027344 0-.007812.003906-.015625.003906-.023437zm-242.285157 248.066407h.082031c-.023437 0-.054687 0-.082031 0zm.308594-.007813h.140625c-.03125 0-.078125 0-.140625 0zm8.207031-.238281c-2.976562.097656-6.519531.199218-9.109375.261718.054688 0 .160157-.003906.285157-.007812-.097657.003906-.199219.007812-.324219.011719-116.28125-.070313-210.867188-94.695313-210.867188-210.996094 0-116.34375 94.652344-210.996094 210.996094-210.996094 51.136719 0 100.464844 18.527344 138.898437 52.164063 36.117188 31.613281 60.332032 74.449218 68.753907 121.296875l-68.5625 28.269531c-4.789063-73.171875-65.828125-131.238281-140.1875-131.238281-77.476563 0-140.503907 63.03125-140.503907 140.503906s63.027344 140.5 140.503907 140.5c26.089843 0 50.402343-7.6875 73.121093-20.140625l.878907 76.515625c-7.554688-5.007813-16.417969-7.65625-25.703125-7.53125-16.089844.183594-30.160156 8.703125-38.179688 21.386719zm64.316406 24.078125c.164063 14.121093-11.195312 25.742187-25.320312 25.90625-14.144531.171875-25.746094-11.199219-25.90625-25.320313-.164062-14.125 11.195312-25.746094 25.320312-25.90625.101563-.003906.199219-.003906.300782-.003906 6.730468 0 13.074218 2.585938 17.898437 7.296875 4.890625 4.78125 7.628907 11.183594 7.707031 18.027344zm3.835938-218.542969c-1.433594.589844-2.671875 1.484375-3.664062 2.589844 1.503906-6.042969 2.316406-12.355469 2.316406-18.855469 0-43.078125-35.046875-78.121094-78.121094-78.121094-43.078125 0-78.121094 35.042969-78.121094 78.121094 0 43.074219 35.042969 78.121094 78.121094 78.121094 33.535156 0 62.199219-21.246094 73.25-50.984375l.441406 38.246094v.011718l.359375 31.613282c-3.65625 2.5-11.054687 6.699218-18.128906 10.21875-.027344.015624-.0625.03125-.089844.046874-17.011719 8.683594-35.390625 13.082032-54.636719 13.082032-66.367187 0-120.359374-53.992188-120.359374-120.355469 0-66.367187 53.992187-120.359375 120.359374-120.359375 66.003907 0 119.761719 53.40625 120.347657 119.277344zm-21.492188-16.265625c0 31.96875-26.007812 57.976563-57.976562 57.976563s-57.976562-26.007813-57.976562-57.976563 26.007812-57.976563 57.976562-57.976563 57.976562 26.007813 57.976562 57.976563zm35.894532 68.382813-.414063-36.09375 131.65625-54.285157.4375 38.410157zm126.195312 123.933593c-4.78125 4.890625-11.183594 7.628907-18.027344 7.710938-.097656 0-.199218 0-.300781 0-6.730469 0-13.074219-2.585938-17.894531-7.296875-4.894531-4.78125-7.632812-11.183594-7.710938-18.023438-.160156-14.125 11.195313-25.746094 25.320313-25.910156h.304687c6.726563 0 13.070313 2.585938 17.894532 7.296875 4.882812 4.769531 7.617187 11.15625 7.707031 17.984375l.003906.070312c.066407 6.828126-2.523437 13.28125-7.296875 18.167969zm0 0"/></svg>